<svg xmlns="http://www.w3.org/2000/svg" version="1.1" xmlns:xlink="http://www.w3.org/1999/xlink" xmlns:svgjs="http://svgjs.dev/svgjs" width="1500" height="1500" viewBox="0 0 1500 1500"><g transform="matrix(1,0,0,1,-0.7499999999998863,-0.7499999999998863)"><svg viewBox="0 0 280 280" data-background-color="#499b4c" preserveAspectRatio="xMidYMid meet" height="1500" width="1500" xmlns="http://www.w3.org/2000/svg" xmlns:xlink="http://www.w3.org/1999/xlink"><g id="tight-bounds" transform="matrix(1,0,0,1,0.13999999999998636,0.13999999999998636)"><svg viewBox="0 0 279.72 279.72" height="279.72" width="279.72"><g><svg viewBox="0 0 279.72 279.72" height="279.72" width="279.72"><g><svg viewBox="0 0 279.72 279.72" height="279.72" width="279.72"><g id="textblocktransform"><svg viewBox="0 0 279.72 279.72" height="279.72" width="279.72" id="textblock"><g><svg viewBox="0 0 279.72 279.72" height="279.72" width="279.72"><g transform="matrix(1,0,0,1,73.92936372216631,100.23272628635425)"><svg viewBox="0 0 131.8612725556674 79.25454742729151" height="79.25454742729151" width="131.8612725556674"><g id="icon-0"><svg xmlns="http://www.w3.org/2000/svg" xmlns:xlink="http://www.w3.org/1999/xlink" version="1.1" x="0" y="0" viewBox="3.132 23.283 95.8689250845165 57.62152998111428" enable-background="new 0 0 100 100" xml:space="preserve" height="79.25454742729151" width="131.8612725556674" class="icon-jxe-0" data-fill-palette-color="accent" id="jxe-0"><path d="M93.65 28.367L85.3 24.768C83.249 24.029 81.19 24.429 79.125 25.968L78.086 26.917A68 68 0 0 1 74.043 30.758C71.991 32.116 70.05 33.197 68.22 34.007A8.5 8.5 0 0 0 64.715 36.922C64.376 37.468 63.962 38.311 63.472 39.453 63.314 39.884 63.012 41.135 62.57 43.2 62.132 45.367 61.588 47.281 60.938 48.942 60.418 50.463 59.292 53.23 57.568 57.251 56.638 59.602 56.226 61.332 56.33 62.45 56.451 63.547 57.12 64.401 58.337 65.011 59.013 65.358 59.775 65.384 60.621 65.091 61.843 64.752 62.809 63.796 63.522 62.223A298 298 0 0 1 65.234 58.244C65.794 56.936 66.785 55.018 68.203 52.488A15.3 15.3 0 0 1 69.899 50.129L70.789 49.319 70.302 50.413C67.594 56.864 65.793 61.081 64.898 63.062 64.002 64.979 62.84 66.219 61.413 66.783 59.997 67.29 58.727 67.314 57.6 66.856 56.993 66.582 56.292 66.1 55.496 65.413A221 221 0 0 1 52.277 68.642C47.183 70.182 44.43 71.033 44.018 71.192 43.106 71.605 42.274 72.13 41.524 72.775 40.75 73.516 40.292 74.195 40.148 74.811 39.896 75.41 40.015 76.173 40.507 77.101 41.091 77.98 42.53 78.192 44.827 77.744L57.285 75.639C61.457 72.632 65.685 69.861 69.97 67.324A4.8 4.8 0 0 0 72.042 65.014C73.255 61.726 74.769 58.123 76.575 54.206A260 260 0 0 1 79.25 48.649C80.953 45.649 82.568 43.341 84.095 41.725L84.105 41.703C85.888 40.031 90.481 37.124 97.886 32.983 100.257 31.604 98.847 30.066 93.65 28.367" fill="#f8f8ec" data-fill-palette-color="accent"></path><path d="M51.767 57.209V57.101C51.601 53.939 51.094 52.088 50.249 51.545 47.407 51.622 45.268 50.996 43.833 49.667A813 813 0 0 1 41.455 44.519C40.953 43.505 40.119 42.58 38.951 41.741 37.908 40.995 36.598 40.321 35.023 39.715 35.023 39.392 35.02 39.073 35.016 38.76 34.934 28.442 34.073 23.283 32.434 23.283 31.694 23.302 31.243 23.412 31.08 23.612 26.241 26.181 22.566 31.23 20.056 38.76L20.033 38.823C18.572 38.989 16.454 40.308 13.679 42.781A18.6 18.6 0 0 0 9.846 47.461C7.283 51.925 6.543 57.59 7.623 64.455 6.663 67.657 5.166 70.416 3.132 72.732A33.7 33.7 0 0 0 9.845 77.583C16.691 81.334 25.449 81.908 36.118 79.305 36.521 75.836 37.264 73.367 38.348 71.896 39.431 70.424 40.232 69.56 40.75 69.306 47.157 68.022 50.828 63.989 51.767 57.209M38.951 50.551C38.807 51.042 38.541 51.498 38.153 51.92 37.537 52.535 36.801 52.844 35.946 52.844 35.08 52.844 34.355 52.535 33.771 51.92 33.166 51.274 32.863 50.517 32.863 49.651S33.165 48.081 33.771 47.538C34.355 46.892 35.08 46.568 35.946 46.568 36.801 46.568 37.537 46.891 38.153 47.538A2.7 2.7 0 0 1 38.951 48.767C39.034 49.041 39.076 49.336 39.076 49.652 39.076 49.961 39.035 50.262 38.951 50.551" fill="#f8f8ec" data-fill-palette-color="accent"></path></svg></g></svg></g><g id="text-0"><path d="M27.08 97.881v0c-0.333 1.02-0.794 1.848-1.382 2.483-0.582 0.637-1.267 1.085-2.057 1.345-0.781 0.256-1.617 0.328-2.508 0.217v0l-0.293 0.897-2.322-1.643c1.009 0.279 1.911 0.325 2.705 0.139 0.794-0.187 1.47-0.57 2.026-1.151 0.55-0.583 0.968-1.313 1.254-2.19v0c0.454-1.391 0.396-2.589-0.175-3.594-0.577-1.008-1.652-1.769-3.224-2.282v0l-3.178-1.037c-1.566-0.511-2.875-0.532-3.926-0.063-1.058 0.467-1.817 1.402-2.275 2.806v0c-0.274 0.838-0.351 1.636-0.231 2.394 0.115 0.749 0.385 1.431 0.81 2.044 0.434 0.609 0.986 1.109 1.656 1.5v0l-2.143 0.056 0.261-0.799c-0.701-0.43-1.289-0.964-1.764-1.601-0.475-0.637-0.77-1.398-0.883-2.283-0.122-0.881 0-1.884 0.367-3.008v0c0.651-1.995 1.767-3.309 3.348-3.944 1.583-0.641 3.55-0.578 5.902 0.19v0l2.758 0.901c2.378 0.776 4.019 1.894 4.923 3.354 0.906 1.453 1.023 3.21 0.351 5.269zM30.792 105.111l-0.894 2.739-22.437-7.324 0.901-2.758 3.954 1.431 0.861 0.238 6.988 2.281 0.549 0.201 4.688 1.433z" fill="#f3f3f3" data-fill-palette-color="primary"></path><path d="M34.654 81.016v0c-1.225 2.36-2.723 3.839-4.496 4.436-1.773 0.597-3.733 0.339-5.881-0.776v0l-2.757-1.43c-2.178-1.13-3.571-2.557-4.178-4.282-0.601-1.721-0.347-3.649 0.761-5.784v0c0.749-1.444 1.639-2.507 2.67-3.189 1.034-0.688 2.169-1.019 3.404-0.994 1.235 0.025 2.535 0.391 3.9 1.099v0l0.573 0.297c0.34 0.176 0.673 0.365 1 0.566 0.321 0.197 0.634 0.402 0.94 0.614v0l-1.227 2.367c-0.494-0.279-0.967-0.54-1.419-0.783-0.452-0.242-0.869-0.462-1.251-0.661v0c-0.94-0.488-1.814-0.749-2.621-0.782-0.809-0.043-1.54 0.148-2.191 0.573-0.654 0.415-1.216 1.075-1.685 1.979v0c-0.689 1.329-0.822 2.527-0.398 3.593 0.43 1.07 1.364 1.978 2.802 2.725v0l1.475 0.765 0.328 0.147 1.474 0.765c0.643 0.334 1.274 0.542 1.894 0.624 0.616 0.073 1.218 0.004 1.805-0.207 0.587-0.211 1.141-0.582 1.663-1.112 0.518-0.524 1.003-1.22 1.453-2.088v0c0.523-1.007 0.878-2.012 1.067-3.015 0.183-1.006 0.244-2.006 0.183-3.001v0l2.098 1.389c0.081 0.912 0.016 1.891-0.196 2.937-0.217 1.042-0.614 2.119-1.19 3.228zM30.307 72.12l-5.713 11.011-1.93-1.001 5.714-11.012z" fill="#f3f3f3" data-fill-palette-color="primary"></path><path d="M44.102 66.192v0c-0.79 1.091-1.588 1.85-2.396 2.278-0.817 0.429-1.666 0.553-2.547 0.372-0.881-0.182-1.82-0.634-2.816-1.356v0l-8.92-6.456 1.678-2.317 8.645 6.258c0.925 0.669 1.763 0.951 2.514 0.845 0.746-0.11 1.482-0.666 2.208-1.667v0c0.413-0.57 0.746-1.165 0.999-1.783 0.259-0.614 0.44-1.238 0.545-1.871v0l1.853 1.67c-0.096 0.622-0.298 1.286-0.606 1.992-0.302 0.709-0.688 1.388-1.157 2.035zM34.171 53.928l-7.37 10.182-1.877-1.358 7.527-10.398zM28.469 58.344l-1.623 2.242-3.982-2.857 1.406-2.589z" fill="#f3f3f3" data-fill-palette-color="primary"></path><path d="M60.232 48.755v0c-1.043 0.946-2.053 1.659-3.029 2.139-0.986 0.479-1.854 0.819-2.605 1.02v0l-1.995-1.803c0.946-0.249 1.919-0.601 2.919-1.055 0.99-0.455 1.976-1.128 2.958-2.019v0c0.997-0.905 1.604-1.741 1.82-2.51 0.217-0.778 0.041-1.481-0.528-2.109v0l-0.131-0.144c-0.367-0.405-0.769-0.654-1.205-0.748-0.426-0.093-0.979-0.016-1.659 0.231-0.675 0.243-1.56 0.676-2.654 1.3v0c-1.304 0.749-2.415 1.245-3.332 1.486-0.917 0.25-1.728 0.257-2.432 0.019-0.7-0.232-1.362-0.693-1.987-1.381v0l-0.103-0.114c-1.029-1.134-1.415-2.348-1.158-3.642 0.257-1.294 1.175-2.657 2.754-4.09v0c1.013-0.918 1.999-1.601 2.959-2.048 0.951-0.447 1.793-0.745 2.526-0.893v0l1.844 1.635c-0.88 0.18-1.788 0.496-2.725 0.949-0.946 0.452-1.883 1.099-2.809 1.939v0c-0.668 0.606-1.148 1.166-1.439 1.679-0.291 0.513-0.416 0.981-0.373 1.405 0.047 0.418 0.229 0.802 0.546 1.152v0l0.097 0.106c0.354 0.39 0.743 0.636 1.169 0.739 0.431 0.098 0.978 0.031 1.643-0.203 0.66-0.239 1.501-0.655 2.521-1.249v0c1.306-0.778 2.423-1.307 3.351-1.586 0.928-0.279 1.748-0.312 2.458-0.098 0.715 0.219 1.408 0.698 2.078 1.437v0l0.207 0.228c1.102 1.215 1.508 2.517 1.218 3.906-0.285 1.385-1.253 2.825-2.904 4.322z" fill="#f3f3f3" data-fill-palette-color="primary"></path><path d="M71.204 39.36l-2.334 1.724-10.366-14.037 2.334-1.724zM57.976 23.881v0c-0.484 0.357-0.935 0.495-1.353 0.412-0.423-0.078-0.797-0.337-1.122-0.777v0l-0.055-0.074c-0.333-0.451-0.473-0.887-0.419-1.309 0.044-0.423 0.308-0.814 0.792-1.172v0c0.478-0.353 0.929-0.491 1.353-0.412 0.425 0.069 0.803 0.329 1.136 0.779v0l0.055 0.075c0.333 0.451 0.47 0.889 0.411 1.315-0.054 0.422-0.32 0.81-0.798 1.163z" fill="#f3f3f3" data-fill-palette-color="primary"></path><path d="M81.877 33.367v0c-1.166 0.673-2.205 1.04-3.117 1.101-0.921 0.058-1.747-0.176-2.477-0.702-0.73-0.526-1.402-1.322-2.017-2.387v0l-5.504-9.537 2.478-1.43 5.335 9.244c0.571 0.989 1.22 1.588 1.949 1.799 0.726 0.205 1.624-0.002 2.696-0.621v0c0.61-0.352 1.157-0.758 1.64-1.219 0.487-0.455 0.908-0.95 1.262-1.485v0l1.009 2.282c-0.342 0.529-0.798 1.052-1.366 1.57-0.566 0.524-1.195 0.986-1.888 1.385zM77.823 18.116l-10.887 6.283-1.158-2.007 11.117-6.416zM70.814 19.817l-2.398 1.384-2.467-4.235 2.341-1.789z" fill="#f3f3f3" data-fill-palette-color="primary"></path><path d="M95.492 26.92v0c-1.241 0.522-2.318 0.755-3.231 0.701-0.921-0.058-1.711-0.393-2.369-1.007-0.658-0.613-1.225-1.487-1.702-2.621v0l-4.265-10.152 2.637-1.108 4.135 9.84c0.442 1.052 1.012 1.729 1.708 2.029 0.694 0.294 1.612 0.201 2.753-0.278v0c0.649-0.273 1.242-0.607 1.78-1.003 0.54-0.39 1.02-0.829 1.438-1.316v0l0.715 2.391c-0.406 0.482-0.923 0.944-1.553 1.386-0.627 0.449-1.309 0.828-2.046 1.138zM93.381 11.281l-11.589 4.869-0.897-2.136 11.834-4.972zM86.214 12.09l-2.552 1.072-1.917-4.51 2.547-1.481z" fill="#f3f3f3" data-fill-palette-color="primary"></path><path d="M106.691 22.52l-2.764 0.881-5.298-16.626 2.764-0.881zM99.147 3.608v0c-0.573 0.183-1.044 0.168-1.413-0.045-0.375-0.21-0.646-0.576-0.812-1.097v0l-0.028-0.088c-0.17-0.534-0.162-0.992 0.025-1.375 0.178-0.387 0.554-0.671 1.126-0.854v0c0.567-0.181 1.038-0.166 1.413 0.045 0.38 0.202 0.655 0.57 0.826 1.104v0l0.028 0.088c0.17 0.534 0.159 0.993-0.035 1.377-0.187 0.382-0.563 0.664-1.13 0.845z" fill="#f3f3f3" data-fill-palette-color="primary"></path><path d="M126.687 18.444l-2.839 0.544-2.043-10.653c-0.178-0.926-0.458-1.697-0.841-2.313-0.377-0.624-0.886-1.065-1.527-1.325-0.635-0.261-1.445-0.297-2.433-0.107v0c-0.9 0.173-1.649 0.494-2.247 0.963-0.593 0.462-1.039 1.024-1.337 1.687-0.299 0.656-0.461 1.369-0.487 2.139v0l-0.892-1.927 0.615-0.118c0.04-0.808 0.23-1.575 0.571-2.302 0.348-0.728 0.881-1.356 1.601-1.883 0.719-0.535 1.649-0.911 2.79-1.13v0c1.363-0.261 2.51-0.213 3.441 0.143 0.937 0.349 1.693 0.97 2.268 1.862 0.568 0.893 0.987 2.041 1.255 3.444v0zM115.229 20.642l-2.85 0.546-3.287-17.138 2.85-0.546 0.657 4.133 0.162 0.136z" fill="#f3f3f3" data-fill-palette-color="primary"></path><path d="M138.476 12.965v0c-2.371 0.04-4.202-0.448-5.49-1.466-1.289-1.01-1.949-2.483-1.982-4.417v0l-0.008-0.451c-0.02-1.203 0.211-2.253 0.695-3.149 0.477-0.904 1.254-1.617 2.333-2.142 1.071-0.524 2.485-0.825 4.24-0.902v0l8.893-0.438 0.039 2.286-5.262-0.085-0.008 0.123c0.823 0.15 1.501 0.422 2.034 0.817 0.526 0.401 0.925 0.904 1.194 1.507 0.263 0.604 0.402 1.309 0.415 2.116v0l0.007 0.389c0.031 1.852-0.553 3.274-1.753 4.265-1.193 0.991-2.976 1.507-5.347 1.547zM138.506 22.583v0l0.42-0.007c1.073-0.018 1.991-0.116 2.754-0.293 0.763-0.17 1.35-0.433 1.76-0.789 0.411-0.349 0.612-0.81 0.602-1.384v0l-0.001-0.072c-0.011-0.67-0.259-1.175-0.743-1.515-0.491-0.34-1.322-0.555-2.493-0.645v0l-4.938-0.367 0.819-0.045c-0.661 0.107-1.243 0.271-1.745 0.491-0.502 0.22-0.894 0.511-1.175 0.871-0.281 0.353-0.417 0.793-0.408 1.319v0l0.001 0.041c0.01 0.601 0.227 1.087 0.65 1.456 0.423 0.362 1.015 0.612 1.776 0.749 0.768 0.144 1.675 0.207 2.721 0.19zM138.904 24.883l-0.513 0.009c-1.572 0.027-2.931-0.084-4.076-0.331-1.139-0.254-2.028-0.677-2.667-1.267-0.632-0.591-0.957-1.392-0.974-2.404v0l-0.001-0.072c-0.012-0.718 0.145-1.315 0.472-1.792 0.334-0.484 0.789-0.868 1.364-1.151 0.569-0.283 1.212-0.479 1.929-0.586v0l-0.023-0.113c-0.98-0.147-1.706-0.422-2.177-0.824-0.472-0.402-0.713-0.931-0.725-1.588v0l0-0.02c-0.008-0.451 0.088-0.839 0.288-1.164 0.206-0.325 0.52-0.586 0.94-0.785 0.42-0.199 0.958-0.327 1.614-0.386v0l-0.006-0.359 3.335 0.785-1.364-0.018c-0.806 0.027-1.361 0.136-1.666 0.325-0.311 0.19-0.464 0.469-0.457 0.839v0l0 0.02c0.007 0.396 0.234 0.69 0.682 0.881 0.441 0.198 1.192 0.346 2.253 0.443v0l4.251 0.359c1.848 0.16 3.202 0.581 4.062 1.264 0.852 0.683 1.29 1.704 1.313 3.065v0l0.001 0.092c0.018 1.08-0.288 1.97-0.918 2.671-0.631 0.701-1.531 1.222-2.701 1.564-1.177 0.334-2.589 0.516-4.236 0.543zM138.399 10.823v0c1.005-0.017 1.832-0.178 2.483-0.483 0.658-0.305 1.153-0.754 1.485-1.348 0.332-0.594 0.49-1.321 0.476-2.182v0l-0.008-0.43c-0.014-0.834-0.19-1.538-0.528-2.114-0.338-0.582-0.838-1.018-1.498-1.308-0.661-0.296-1.487-0.436-2.479-0.419v0l-0.102 0.002c-1.073 0.018-1.945 0.197-2.616 0.536-0.664 0.339-1.145 0.809-1.443 1.409-0.291 0.593-0.429 1.282-0.416 2.068v0l0.007 0.41c0.015 0.861 0.198 1.579 0.549 2.154 0.345 0.575 0.861 1.007 1.55 1.297 0.682 0.289 1.528 0.425 2.54 0.408z" fill="#f3f3f3" data-fill-palette-color="primary"></path><path d="M166.989 21.528v0c-2.449-0.51-4.134-1.553-5.056-3.127-0.923-1.568-1.131-3.566-0.625-5.995v0l0.554-2.66c0.508-2.436 1.501-4.187 2.981-5.254 1.471-1.062 3.428-1.338 5.87-0.829v0c0.723 0.151 1.368 0.355 1.935 0.613 0.568 0.258 1.063 0.546 1.485 0.864 0.43 0.313 0.785 0.621 1.064 0.924v0l-0.273 2.519c-0.461-0.536-1.035-1.029-1.724-1.48-0.696-0.445-1.549-0.773-2.56-0.984v0c-1.639-0.342-2.951-0.144-3.935 0.594-0.985 0.737-1.657 1.969-2.017 3.695v0l-0.525 2.519c-0.353 1.693-0.226 3.077 0.38 4.154 0.607 1.076 1.73 1.785 3.369 2.126v0c1.044 0.218 1.981 0.259 2.812 0.126 0.823-0.129 1.576-0.342 2.26-0.64v0l-0.782 2.445c-0.588 0.241-1.328 0.425-2.221 0.553-0.891 0.121-1.889 0.067-2.992-0.163z" fill="#f3f3f3" data-fill-palette-color="primary"></path><path d="M182.676 26.489v0c-2.355-0.865-3.905-2.155-4.651-3.871-0.746-1.716-0.681-3.767 0.196-6.154v0l0.916-2.492c0.872-2.374 2.15-3.969 3.833-4.785 1.683-0.816 3.696-0.794 6.037 0.066v0c2.348 0.863 3.896 2.149 4.645 3.858 0.748 1.709 0.686 3.751-0.185 6.125v0l-0.916 2.492c-0.877 2.387-2.155 3.993-3.834 4.818-1.679 0.825-3.693 0.806-6.041-0.057zM183.492 24.266v0c1.45 0.533 2.711 0.508 3.785-0.074 1.073-0.582 1.907-1.684 2.503-3.307v0l1.029-2.8c0.592-1.61 0.666-2.981 0.222-4.113-0.441-1.138-1.387-1.973-2.837-2.506v0c-1.444-0.53-2.705-0.506-3.784 0.074-1.071 0.575-1.902 1.668-2.493 3.278v0l-1.029 2.801c-0.596 1.623-0.674 3.004-0.232 4.141 0.448 1.14 1.393 1.975 2.836 2.506z" fill="#f3f3f3" data-fill-palette-color="primary"></path><path d="M214.879 43.75l-2.467-1.508 5.695-9.316c0.481-0.787 0.797-1.527 0.948-2.22 0.155-0.699 0.101-1.344-0.161-1.938-0.262-0.593-0.773-1.121-1.531-1.584v0c-0.723-0.442-1.441-0.677-2.154-0.704-0.709-0.033-1.375 0.101-1.999 0.401-0.63 0.296-1.204 0.718-1.723 1.266v0l0.699-1.989 0.297 0.182c0.555-0.542 1.196-0.967 1.922-1.276 0.72-0.313 1.513-0.437 2.379-0.373 0.868 0.074 1.789 0.409 2.763 1.004v0c1.108 0.677 1.867 1.441 2.275 2.292 0.409 0.851 0.515 1.792 0.317 2.825-0.198 1.032-0.663 2.146-1.394 3.342v0zM196.29 32.388l-2.476-1.514 9.101-14.889 2.476 1.514-2.296 3.499 0.018 0.227zM205.571 38.061l-2.449-1.497 5.695-9.317c0.481-0.787 0.797-1.527 0.948-2.22 0.155-0.699 0.104-1.343-0.153-1.932-0.257-0.589-0.764-1.116-1.522-1.579v0c-0.735-0.449-1.458-0.687-2.171-0.714-0.703-0.029-1.373 0.11-2.01 0.418-0.633 0.302-1.213 0.733-1.739 1.292v0l0.62-2.037 0.551 0.337c0.562-0.578 1.201-1.028 1.919-1.35 0.712-0.326 1.491-0.454 2.338-0.385 0.845 0.06 1.731 0.373 2.658 0.939v0c1.376 0.841 2.203 1.835 2.48 2.982 0.282 1.15 0.1 2.464-0.548 3.943v0c-0.078 0.233-0.179 0.476-0.301 0.729-0.125 0.244-0.261 0.486-0.407 0.724v0z" fill="#f3f3f3" data-fill-palette-color="primary"></path><path d="M224.298 53.281v0c-0.782-0.735-1.336-1.503-1.661-2.305-0.33-0.797-0.444-1.608-0.345-2.434 0.1-0.816 0.39-1.603 0.869-2.363v0l-0.687-0.645 2.473-1.405c-0.681 0.795-1.106 1.592-1.274 2.39-0.168 0.798-0.108 1.573 0.181 2.322 0.294 0.745 0.777 1.434 1.45 2.066v0c1.066 1.001 2.176 1.458 3.329 1.368 1.158-0.094 2.303-0.744 3.435-1.95v0l2.288-2.436c1.128-1.201 1.703-2.377 1.725-3.528 0.027-1.157-0.498-2.24-1.575-3.251v0c-0.643-0.604-1.332-1.012-2.069-1.227-0.727-0.214-1.459-0.259-2.195-0.134-0.736 0.134-1.423 0.422-2.061 0.862v0l0.859-1.963 0.613 0.575c0.687-0.452 1.42-0.758 2.198-0.917 0.778-0.16 1.592-0.103 2.442 0.17 0.85 0.264 1.705 0.8 2.568 1.61v0c1.529 1.437 2.246 3.005 2.149 4.705-0.092 1.705-0.985 3.459-2.679 5.263v0l-1.986 2.115c-1.713 1.823-3.422 2.834-5.128 3.032-1.701 0.203-3.341-0.437-4.919-1.92zM216.176 53.571l-2.1-1.972 16.159-17.203 2.114 1.987-2.975 2.972-0.58 0.679-5.033 5.358-0.415 0.412-3.288 3.635z" fill="#f3f3f3" data-fill-palette-color="primary"></path><path d="M240.271 71.74l-1.75-2.276 3.433-2.482 0.289-0.365 4.406-3.385 0.818-0.603c1.127-0.866 1.741-1.79 1.84-2.771 0.101-0.991-0.324-2.104-1.274-3.34v0c-0.762-0.992-1.605-1.792-2.529-2.401-0.915-0.607-1.81-1.088-2.685-1.441v0l2.121-1.294c0.492 0.191 1.035 0.455 1.63 0.791 0.59 0.331 1.204 0.76 1.842 1.287 0.632 0.531 1.242 1.179 1.829 1.943v0c0.762 0.992 1.288 1.928 1.577 2.81 0.295 0.877 0.381 1.707 0.259 2.49-0.126 0.778-0.432 1.513-0.918 2.205-0.495 0.691-1.138 1.34-1.929 1.948v0zM234.56 64.931v0c-1.054-1.371-1.528-2.679-1.424-3.923 0.104-1.244 0.777-2.343 2.019-3.296v0l0.406-0.312c1.279-0.983 2.535-1.323 3.768-1.02 1.231 0.312 2.632 1.232 4.201 2.758v0l3.993 3.901-1.575 1.417-3.858-3.759c-0.964-0.94-1.802-1.499-2.515-1.675-0.713-0.176-1.424 0.008-2.135 0.554v0l-0.227 0.175c-0.726 0.558-1.112 1.212-1.157 1.961-0.039 0.746 0.287 1.568 0.979 2.468v0c0.608 0.791 1.266 1.367 1.974 1.729 0.71 0.351 1.43 0.526 2.161 0.524 0.733-0.011 1.429-0.171 2.089-0.48v0l-1.278 1.551-0.338-0.439c-0.711 0.331-1.466 0.515-2.265 0.552-0.799 0.037-1.606-0.149-2.421-0.559-0.824-0.41-1.623-1.119-2.397-2.127z" fill="#f3f3f3" data-fill-palette-color="primary"></path><path d="M249.859 89.007l-1.389-2.536 9.515-5.209c0.827-0.453 1.475-0.956 1.944-1.509 0.478-0.55 0.742-1.17 0.793-1.86 0.054-0.684-0.16-1.467-0.643-2.348v0c-0.44-0.803-0.975-1.418-1.606-1.845-0.621-0.423-1.293-0.675-2.015-0.755-0.716-0.083-1.445-0.019-2.186 0.192v0l1.562-1.44 0.3 0.549c0.781-0.21 1.57-0.264 2.366-0.162 0.799 0.108 1.561 0.424 2.284 0.947 0.729 0.52 1.373 1.29 1.93 2.31v0c0.666 1.217 0.972 2.324 0.918 3.32-0.045 0.999-0.404 1.909-1.077 2.728-0.676 0.814-1.641 1.565-2.894 2.251v0zM244.255 78.774l-1.393-2.545 15.306-8.381 1.393 2.545-3.733 1.892-0.08 0.196z" fill="#f3f3f3" data-fill-palette-color="primary"></path><path d="M256.13 98.789l0.543 1.581-1.117-1.232 16.269-0.076 0.974 2.831-24.99-0.091-0.953-2.773 8.439 0.015-0.633 1.562-1.07-3.112 13.969-10.832 0.977 2.84z" fill="#f3f3f3" data-fill-palette-color="primary"></path><path d="M1.659 139.034c0-5.05 4.094-9.144 9.144-9.145 5.05 0 9.144 4.094 9.145 9.145 0 5.05-4.094 9.144-9.145 9.144-5.05 0-9.144-4.094-9.144-9.144z" fill="#f3f3f3" data-fill-palette-color="primary"></path><path d="M259.772 139.034c0-5.05 4.094-9.144 9.145-9.145 5.05 0 9.144 4.094 9.144 9.145 0 5.05-4.094 9.144-9.144 9.144-5.05 0-9.144-4.094-9.145-9.144z" fill="#f3f3f3" data-fill-palette-color="primary"></path></g><g id="text-1"><path d="M26.151 173.449l-15.983 5.021-0.652-2.074 15.983-5.021zM29.183 183.103l-15.982 5.021-0.652-2.073 15.983-5.021zM17.254 175.266l1.75-0.55 2.92 9.292-1.751 0.55z" fill="#d2dbc8" data-fill-palette-color="secondary"></path><path d="M19.78 202.589l-0.892-1.914 2.855-1.228 0.263-0.213 3.69-1.719 0.683-0.306c0.942-0.439 1.528-1.002 1.757-1.69 0.23-0.688 0.103-1.552-0.382-2.593v0c-0.387-0.83-0.859-1.538-1.417-2.122-0.559-0.584-1.125-1.071-1.698-1.46v0l1.731-0.58c0.318 0.214 0.664 0.486 1.037 0.818 0.373 0.331 0.744 0.739 1.113 1.223 0.366 0.478 0.699 1.039 0.999 1.684v0c0.387 0.83 0.613 1.584 0.68 2.262 0.073 0.675 0.004 1.28-0.206 1.815-0.217 0.538-0.556 1.017-1.017 1.435-0.461 0.418-1.023 0.782-1.687 1.091v0zM16.776 196.795v0c-0.534-1.146-0.665-2.156-0.393-3.029 0.272-0.873 0.928-1.552 1.97-2.037v0l0.343-0.16c1.072-0.499 2.026-0.54 2.861-0.122 0.833 0.412 1.687 1.292 2.564 2.64v0l2.231 3.428-1.352 0.765-2.16-3.303c-0.539-0.835-1.049-1.37-1.529-1.606-0.486-0.234-1.026-0.212-1.621 0.065v0l-0.186 0.086c-0.607 0.283-0.988 0.687-1.143 1.212-0.146 0.528-0.043 1.17 0.309 1.926v0c0.309 0.663 0.689 1.18 1.14 1.55 0.449 0.364 0.937 0.604 1.466 0.719 0.52 0.112 1.043 0.11 1.569-0.007v0l-1.172 0.908-0.173-0.372c-0.56 0.125-1.128 0.137-1.703 0.035-0.575-0.102-1.124-0.366-1.648-0.793-0.52-0.421-0.978-1.056-1.373-1.905z" fill="#d2dbc8" data-fill-palette-color="secondary"></path><path d="M25.644 212.985v0c-0.412-0.67-0.656-1.322-0.733-1.956-0.08-0.625-0.007-1.219 0.216-1.782 0.233-0.561 0.594-1.063 1.083-1.508v0l-0.366-0.594 2.017-0.518c-0.636 0.44-1.09 0.923-1.359 1.45-0.276 0.531-0.381 1.089-0.318 1.675 0.064 0.587 0.273 1.168 0.628 1.745v0c0.562 0.914 1.261 1.451 2.097 1.611 0.833 0.154 1.767-0.088 2.804-0.726v0l2.087-1.283c1.025-0.63 1.656-1.352 1.895-2.164 0.238-0.813 0.075-1.679-0.491-2.599v0c-0.34-0.553-0.749-0.976-1.225-1.269-0.477-0.293-0.987-0.464-1.532-0.514-0.541-0.045-1.082 0.028-1.624 0.216v0l0.987-1.232 0.328 0.532c0.567-0.188 1.141-0.265 1.724-0.23 0.583 0.035 1.15 0.232 1.7 0.592 0.552 0.35 1.056 0.895 1.51 1.635v0c0.806 1.31 1.01 2.556 0.614 3.738-0.393 1.188-1.363 2.259-2.912 3.211v0l-1.807 1.112c-1.566 0.963-2.968 1.352-4.206 1.166-1.247-0.188-2.286-0.957-3.117-2.308zM19.841 211.631l-1.106-1.799 14.742-9.066 1.111 1.808-2.677 1.538-0.548 0.361-4.585 2.82-0.372 0.217-3.028 1.946z" fill="#d2dbc8" data-fill-palette-color="secondary"></path><path d="M35.374 226.317v0c-0.49-0.615-0.812-1.232-0.965-1.853-0.155-0.611-0.155-1.209-0.002-1.795 0.163-0.585 0.46-1.128 0.892-1.628v0l-0.435-0.545 1.939-0.759c-0.578 0.514-0.969 1.048-1.174 1.604-0.209 0.56-0.246 1.127-0.111 1.702 0.135 0.575 0.413 1.126 0.834 1.655v0c0.669 0.839 1.428 1.287 2.278 1.344 0.845 0.052 1.744-0.302 2.695-1.06v0l1.916-1.527c0.941-0.75 1.48-1.543 1.618-2.378 0.138-0.836-0.129-1.676-0.802-2.52v0c-0.405-0.508-0.862-0.878-1.371-1.111-0.509-0.233-1.036-0.341-1.583-0.324-0.542 0.021-1.071 0.159-1.586 0.412v0l0.831-1.344 0.389 0.489c0.54-0.255 1.101-0.401 1.684-0.437 0.583-0.036 1.169 0.091 1.759 0.38 0.591 0.281 1.157 0.76 1.698 1.44v0c0.959 1.203 1.313 2.415 1.063 3.636-0.246 1.227-1.079 2.407-2.5 3.541v0l-1.66 1.323c-1.438 1.146-2.782 1.702-4.033 1.668-1.261-0.035-2.385-0.673-3.374-1.913zM29.449 225.677l-1.316-1.651 13.533-10.788 1.322 1.66-2.47 1.851-0.5 0.425-4.209 3.355-0.344 0.261-2.769 2.299z" fill="#d2dbc8" data-fill-palette-color="secondary"></path><path d="M46.987 235.513l0.873 0.852-1.136-0.436 10.635-5.407 1.563 1.525-16.395 8.182-1.533-1.497 5.52-2.778 0.102 1.231-1.725-1.683 5.578-11.705 1.578 1.54z" fill="#d2dbc8" data-fill-palette-color="secondary"></path><path d="M64.98 252.922v0c-0.647-0.446-1.135-0.943-1.462-1.492-0.326-0.54-0.5-1.112-0.523-1.717-0.014-0.607 0.113-1.213 0.38-1.817v0l-0.575-0.396 1.635-1.289c-0.404 0.659-0.623 1.285-0.657 1.875-0.037 0.597 0.092 1.15 0.388 1.661 0.296 0.511 0.722 0.958 1.279 1.342v0c0.884 0.609 1.741 0.817 2.57 0.624 0.824-0.196 1.581-0.795 2.271-1.797v0l1.39-2.018c0.682-0.991 0.968-1.906 0.857-2.746-0.111-0.84-0.611-1.566-1.5-2.178v0c-0.535-0.368-1.079-0.59-1.634-0.665-0.554-0.075-1.091-0.025-1.609 0.15-0.513 0.178-0.979 0.463-1.398 0.855v0l0.404-1.527 0.515 0.355c0.442-0.401 0.937-0.704 1.484-0.908 0.547-0.204 1.145-0.253 1.794-0.147 0.647 0.097 1.328 0.391 2.043 0.884v0c1.267 0.872 1.958 1.929 2.074 3.171 0.122 1.246-0.333 2.617-1.364 4.114v0l-1.204 1.748c-1.043 1.514-2.168 2.437-3.374 2.768-1.216 0.333-2.478 0.049-3.784-0.85zM59.125 254.032l-1.74-1.198 9.815-14.255 1.748 1.204-1.826 2.489-0.356 0.552-3.052 4.434-0.253 0.349-1.981 3.005z" fill="#d2dbc8" data-fill-palette-color="secondary"></path><path d="M78.426 260.76v0c-1.725-0.904-2.806-2.007-3.243-3.309-0.427-1.304-0.23-2.741 0.591-4.308v0l1.057-2.016c0.838-1.598 1.888-2.614 3.149-3.049 1.265-0.44 2.681-0.25 4.25 0.572v0c1.047 0.549 1.822 1.206 2.324 1.971 0.499 0.756 0.738 1.587 0.718 2.494-0.02 0.908-0.293 1.861-0.816 2.86v0l-0.219 0.418c-0.13 0.248-0.272 0.49-0.427 0.726-0.148 0.239-0.299 0.468-0.453 0.688v0l-1.726-0.905c0.206-0.363 0.399-0.709 0.58-1.039 0.181-0.33 0.344-0.634 0.49-0.912v0c0.362-0.69 0.554-1.33 0.578-1.92 0.033-0.592-0.105-1.132-0.414-1.617-0.306-0.477-0.786-0.886-1.44-1.229v0c-0.981-0.514-1.861-0.617-2.64-0.308-0.785 0.306-1.454 0.986-2.006 2.039v0l-0.567 1.081-0.105 0.245-0.567 1.081c-0.248 0.472-0.4 0.932-0.457 1.381-0.061 0.454-0.014 0.896 0.139 1.323 0.151 0.434 0.42 0.841 0.807 1.222 0.384 0.386 0.894 0.746 1.529 1.079v0c0.739 0.387 1.473 0.649 2.205 0.786 0.737 0.139 1.472 0.189 2.203 0.147v0l-1.025 1.535c-0.667 0.051-1.385-0.001-2.152-0.156-0.764-0.161-1.552-0.455-2.363-0.88zM84.966 257.602l-8.054-4.222 0.742-1.417 8.055 4.223z" fill="#d2dbc8" data-fill-palette-color="secondary"></path><path d="M91.896 266.711v0c-0.923-0.362-1.609-0.792-2.059-1.291-0.453-0.493-0.696-1.073-0.729-1.739-0.035-0.66 0.111-1.407 0.438-2.24v0l2.947-7.522 1.957 0.766-2.854 7.284c-0.307 0.783-0.354 1.429-0.142 1.937 0.212 0.509 0.741 0.929 1.587 1.261v0c0.484 0.19 0.965 0.319 1.444 0.389 0.488 0.066 0.968 0.078 1.44 0.036v0l-0.857 1.624c-0.459 0.048-0.966 0.029-1.52-0.056-0.56-0.087-1.111-0.237-1.652-0.449zM98.78 257.406l-8.582-3.363 0.621-1.584 8.763 3.433zM94.597 254.17l-1.89-0.74 1.293-3.359 2.093 0.534z" fill="#d2dbc8" data-fill-palette-color="secondary"></path><path d="M113.203 255.368l-3.489 16.386-2.126-0.453 3.489-16.385zM123.101 257.476l-3.489 16.385-2.126-0.452 3.489-16.386zM110.41 264.009l0.382-1.795 9.526 2.028-0.382 1.795z" fill="#d2dbc8" data-fill-palette-color="secondary"></path><path d="M135.442 275.248l-2.106-0.166 0.335-3.09-0.056-0.333 0.319-4.058 0.069-0.745c0.081-1.036-0.121-1.823-0.607-2.362-0.486-0.539-1.301-0.853-2.445-0.942v0c-0.913-0.072-1.761-0.008-2.545 0.19-0.784 0.199-1.486 0.452-2.106 0.761v0l0.346-1.793c0.343-0.172 0.75-0.339 1.222-0.501 0.472-0.162 1.01-0.284 1.613-0.367 0.596-0.083 1.249-0.097 1.957-0.042v0c0.913 0.072 1.681 0.245 2.304 0.521 0.623 0.268 1.116 0.626 1.479 1.072 0.362 0.454 0.612 0.984 0.749 1.591 0.137 0.607 0.178 1.275 0.12 2.005v0zM128.919 275.013v0c-1.261-0.099-2.204-0.482-2.83-1.148-0.626-0.666-0.895-1.572-0.805-2.716v0l0.03-0.378c0.093-1.179 0.526-2.029 1.3-2.552 0.768-0.522 1.954-0.834 3.56-0.934v0l4.082-0.255 0.002 1.553-3.938 0.256c-0.992 0.059-1.709 0.239-2.151 0.541-0.442 0.308-0.689 0.789-0.741 1.444v0l-0.016 0.204c-0.052 0.668 0.112 1.198 0.492 1.591 0.388 0.387 0.997 0.613 1.829 0.679v0c0.729 0.057 1.366-0.02 1.91-0.231 0.538-0.211 0.987-0.519 1.348-0.922 0.353-0.397 0.609-0.854 0.766-1.37v0l0.214 1.467-0.409-0.032c-0.167 0.549-0.435 1.049-0.807 1.5-0.371 0.451-0.872 0.799-1.501 1.044-0.623 0.246-1.401 0.332-2.335 0.259z" fill="#d2dbc8" data-fill-palette-color="secondary"></path><path d="M147.378 275.255v0c-0.785 0.029-1.473-0.079-2.064-0.324-0.583-0.238-1.065-0.593-1.445-1.065-0.373-0.479-0.634-1.04-0.781-1.684v0l-0.697 0.026 0.541-2.011c0.07 0.77 0.268 1.402 0.594 1.897 0.326 0.501 0.761 0.868 1.303 1.101 0.542 0.233 1.151 0.337 1.827 0.311v0c1.072-0.04 1.884-0.385 2.434-1.034 0.544-0.649 0.793-1.582 0.748-2.798v0l-0.091-2.448c-0.045-1.202-0.362-2.107-0.952-2.715-0.59-0.607-1.425-0.891-2.505-0.851v0c-0.649 0.024-1.218 0.172-1.707 0.443-0.489 0.271-0.89 0.632-1.201 1.081-0.305 0.449-0.508 0.956-0.61 1.521v0l-0.588-1.466 0.625-0.023c0.115-0.586 0.331-1.124 0.648-1.615 0.317-0.491 0.767-0.887 1.351-1.189 0.577-0.309 1.299-0.479 2.166-0.511v0c1.537-0.057 2.723 0.378 3.557 1.304 0.842 0.926 1.296 2.298 1.364 4.115v0l0.079 2.121c0.068 1.837-0.283 3.249-1.054 4.235-0.777 0.993-1.958 1.519-3.542 1.579zM143.344 279.642l-2.11 0.078-0.642-17.295 2.12-0.078 0.023 3.087 0.045 0.655 0.199 5.379 0.006 0.431 0.205 3.593z" fill="#d2dbc8" data-fill-palette-color="secondary"></path><path d="M163.771 273.34v0c-0.776 0.124-1.472 0.101-2.088-0.071-0.608-0.166-1.129-0.459-1.563-0.881-0.429-0.43-0.755-0.955-0.98-1.577v0l-0.688 0.11 0.293-2.061c0.163 0.756 0.436 1.36 0.819 1.81 0.385 0.458 0.86 0.769 1.427 0.935 0.566 0.165 1.184 0.195 1.852 0.087v0c1.06-0.17 1.823-0.61 2.29-1.322 0.461-0.711 0.595-1.667 0.403-2.868v0l-0.388-2.419c-0.19-1.188-0.615-2.047-1.274-2.579-0.66-0.531-1.523-0.711-2.589-0.54v0c-0.641 0.103-1.188 0.318-1.641 0.647-0.453 0.329-0.806 0.735-1.061 1.218-0.248 0.483-0.388 1.011-0.422 1.584v0l-0.761-1.384 0.617-0.099c0.043-0.595 0.192-1.156 0.448-1.681 0.255-0.525 0.654-0.973 1.196-1.344 0.535-0.376 1.231-0.633 2.089-0.771v0c1.519-0.243 2.748 0.044 3.689 0.863 0.948 0.817 1.565 2.124 1.853 3.919v0l0.335 2.096c0.291 1.816 0.114 3.259-0.531 4.331-0.651 1.08-1.759 1.746-3.325 1.997zM160.3 278.184l-2.085 0.334-2.737-17.088 2.096-0.336 0.396 3.062 0.124 0.644 0.852 5.315 0.058 0.427 0.64 3.542z" fill="#d2dbc8" data-fill-palette-color="secondary"></path><path d="M177.489 267.752l1.172-0.341-0.938 0.775 0.522-11.92 2.097-0.61-0.94 18.298-2.057 0.6 0.296-6.173 1.122 0.517-2.314 0.673-7.447-10.613 2.116-0.616z" fill="#d2dbc8" data-fill-palette-color="secondary"></path><path d="M200.236 261.326v0c-1.652 0.791-3.096 0.933-4.332 0.426-1.236-0.507-2.246-1.581-3.031-3.22v0l-0.86-1.794c-0.788-1.646-0.988-3.108-0.599-4.385 0.382-1.274 1.397-2.306 3.042-3.094v0c0.493-0.236 0.962-0.404 1.407-0.504 0.442-0.106 0.859-0.161 1.251-0.167 0.391-0.006 0.732 0.017 1.021 0.068v0l0.964 1.585c-0.506-0.106-1.059-0.137-1.659-0.093-0.603 0.054-1.247 0.245-1.931 0.573v0c-1.103 0.528-1.777 1.226-2.021 2.093-0.25 0.87-0.096 1.888 0.462 3.053v0l0.815 1.702c0.546 1.14 1.238 1.889 2.075 2.245 0.832 0.36 1.799 0.275 2.903-0.253v0c0.709-0.34 1.275-0.732 1.698-1.177 0.423-0.445 0.767-0.906 1.033-1.382v0l0.634 1.777c-0.239 0.403-0.587 0.838-1.044 1.307-0.467 0.466-1.076 0.879-1.828 1.24z" fill="#d2dbc8" data-fill-palette-color="secondary"></path><path d="M200.976 246.115l1.798-1.108 4.176 6.772c0.355 0.576 0.745 1.026 1.169 1.351 0.423 0.334 0.889 0.504 1.399 0.51 0.504 0.01 1.068-0.176 1.69-0.56v0c0.576-0.355 1.009-0.767 1.299-1.234 0.28-0.47 0.44-0.974 0.478-1.511 0.036-0.528-0.042-1.058-0.234-1.591v0l1.114 1.084-0.393 0.242c0.191 0.557 0.263 1.13 0.218 1.721-0.046 0.59-0.248 1.161-0.607 1.711-0.35 0.553-0.891 1.055-1.625 1.508v0c-0.855 0.527-1.651 0.793-2.387 0.797-0.727 0.006-1.404-0.226-2.032-0.698-0.634-0.468-1.222-1.142-1.764-2.021v0zM208.255 241.628l1.806-1.114 6.715 10.892-1.806 1.113-1.53-2.657-0.149-0.066z" fill="#d2dbc8" data-fill-palette-color="secondary"></path><path d="M224.762 245.626v0c-0.809 0.641-1.584 1.115-2.325 1.423-0.74 0.299-1.389 0.503-1.947 0.614v0l-1.383-1.416c0.707-0.142 1.437-0.354 2.19-0.636 0.753-0.282 1.507-0.723 2.263-1.322v0c0.777-0.615 1.263-1.201 1.459-1.757 0.196-0.556 0.101-1.078-0.286-1.566v0l-0.089-0.112c-0.25-0.316-0.531-0.517-0.842-0.602-0.306-0.089-0.715-0.061-1.229 0.084-0.509 0.15-1.178 0.423-2.007 0.818v0c-0.985 0.484-1.822 0.793-2.509 0.928-0.683 0.14-1.275 0.108-1.776-0.096-0.502-0.204-0.965-0.574-1.39-1.11v0l-0.076-0.097c-0.692-0.873-0.913-1.78-0.663-2.719 0.254-0.934 0.992-1.885 2.214-2.852v0c0.788-0.624 1.541-1.077 2.259-1.358 0.719-0.282 1.35-0.459 1.894-0.532v0l1.275 1.279c-0.648 0.095-1.33 0.286-2.045 0.573-0.709 0.283-1.423 0.708-2.14 1.277v0c-0.525 0.416-0.906 0.805-1.143 1.167-0.237 0.362-0.351 0.696-0.342 1.004 0.013 0.303 0.131 0.594 0.351 0.872v0l0.064 0.081c0.238 0.3 0.509 0.499 0.813 0.598 0.31 0.094 0.714 0.071 1.213-0.071 0.498-0.142 1.135-0.406 1.909-0.794v0c0.988-0.503 1.829-0.834 2.524-0.991 0.695-0.158 1.296-0.142 1.804 0.048 0.513 0.196 0.996 0.58 1.45 1.154v0l0.14 0.176c0.747 0.943 0.982 1.917 0.705 2.921-0.276 0.995-1.054 1.999-2.335 3.014z" fill="#d2dbc8" data-fill-palette-color="secondary"></path><path d="M235.576 235.941v0c-0.711 0.691-1.386 1.138-2.027 1.342-0.636 0.209-1.264 0.19-1.885-0.056-0.615-0.241-1.235-0.682-1.859-1.323v0l-5.633-5.792 1.507-1.465 5.454 5.608c0.586 0.603 1.155 0.913 1.705 0.93 0.551 0.017 1.152-0.291 1.804-0.925v0c0.372-0.362 0.69-0.747 0.951-1.154 0.262-0.417 0.471-0.849 0.627-1.296v0l1.126 1.451c-0.146 0.438-0.373 0.891-0.679 1.361-0.311 0.474-0.675 0.914-1.091 1.319zM229.945 225.828l-6.607 6.426-1.187-1.22 6.747-6.562zM225.27 228.3l-1.455 1.415-2.524-2.565 1.351-1.685z" fill="#d2dbc8" data-fill-palette-color="secondary"></path><path d="M244.41 226.284v0c-1.184 1.406-2.459 2.151-3.825 2.234-1.37 0.088-2.769-0.468-4.196-1.67v0l-1.49-1.254c-1.417-1.193-2.196-2.47-2.337-3.831-0.142-1.37 0.375-2.754 1.55-4.15v0c1.18-1.401 2.455-2.146 3.825-2.234 1.365-0.093 2.756 0.457 4.173 1.65v0l1.49 1.255c1.427 1.202 2.214 2.485 2.36 3.85 0.146 1.365-0.371 2.748-1.55 4.15zM243.084 225.168v0c0.731-0.868 1.029-1.742 0.896-2.624-0.139-0.885-0.692-1.735-1.66-2.55v0l-1.67-1.406c-0.967-0.814-1.894-1.21-2.78-1.188-0.891 0.018-1.702 0.461-2.432 1.329v0c-0.726 0.863-1.025 1.737-0.896 2.624 0.124 0.882 0.67 1.73 1.637 2.545v0l1.671 1.406c0.967 0.814 1.901 1.212 2.802 1.193 0.895-0.023 1.706-0.467 2.432-1.329z" fill="#d2dbc8" data-fill-palette-color="secondary"></path><path d="M260.401 201.857l-1.118 1.804-6.806-4.219c-0.569-0.353-1.111-0.588-1.625-0.705-0.508-0.114-0.981-0.077-1.419 0.109-0.432 0.191-0.819 0.562-1.161 1.114v0c-0.328 0.529-0.505 1.054-0.531 1.577-0.023 0.517 0.072 1.006 0.285 1.467 0.213 0.461 0.518 0.884 0.915 1.267v0l-1.454-0.515 0.141-0.226c-0.393-0.404-0.701-0.873-0.926-1.407-0.224-0.533-0.312-1.118-0.263-1.755 0.055-0.633 0.304-1.307 0.746-2.022v0c0.501-0.808 1.064-1.359 1.69-1.655 0.626-0.296 1.318-0.369 2.078-0.22 0.75 0.151 1.564 0.499 2.441 1.043v0zM251.986 215.434l-1.118 1.804-10.876-6.741 1.118-1.804 2.557 1.694 0.162-0.008zM256.188 208.654l-1.107 1.787-6.806-4.219c-0.569-0.353-1.111-0.588-1.626-0.705-0.508-0.114-0.981-0.077-1.419 0.109-0.428 0.185-0.815 0.556-1.16 1.114v0c-0.331 0.534-0.508 1.06-0.531 1.577-0.026 0.522 0.07 1.016 0.288 1.481 0.222 0.459 0.538 0.884 0.947 1.275v0l-1.487-0.463 0.249-0.401c-0.42-0.413-0.748-0.882-0.986-1.407-0.237-0.525-0.328-1.1-0.27-1.724 0.048-0.622 0.28-1.27 0.698-1.943v0c0.623-1.005 1.358-1.607 2.205-1.806 0.841-0.202 1.8-0.063 2.876 0.42v0c0.173 0.059 0.352 0.133 0.536 0.224 0.181 0.096 0.359 0.199 0.534 0.306v0z" fill="#d2dbc8" data-fill-palette-color="secondary"></path><path d="M265.2 191.668v0c-0.767 1.79-1.783 2.954-3.046 3.491-1.267 0.528-2.714 0.443-4.342-0.255v0l-2.092-0.896c-1.659-0.711-2.753-1.678-3.285-2.903-0.538-1.227-0.458-2.654 0.24-4.281v0c0.466-1.087 1.06-1.91 1.784-2.47 0.714-0.556 1.525-0.86 2.431-0.91 0.906-0.05 1.878 0.147 2.915 0.591v0l0.433 0.186c0.258 0.11 0.51 0.233 0.757 0.369 0.249 0.129 0.49 0.262 0.722 0.398v0l-0.768 1.791c-0.378-0.177-0.738-0.342-1.081-0.497-0.343-0.154-0.659-0.293-0.948-0.418v0c-0.716-0.307-1.369-0.449-1.958-0.426-0.593 0.013-1.12 0.193-1.581 0.538-0.451 0.342-0.823 0.852-1.113 1.531v0c-0.436 1.018-0.47 1.903-0.101 2.656 0.366 0.759 1.096 1.373 2.189 1.842v0l1.121 0.48 0.253 0.086 1.121 0.481c0.49 0.21 0.961 0.326 1.413 0.349 0.458 0.025 0.894-0.056 1.308-0.243 0.421-0.184 0.806-0.484 1.155-0.899 0.355-0.413 0.674-0.949 0.958-1.609v0c0.329-0.766 0.532-1.519 0.611-2.258 0.082-0.746 0.074-1.482-0.024-2.208v0l1.61 0.902c0.103 0.661 0.107 1.381 0.012 2.158-0.101 0.775-0.333 1.583-0.694 2.424zM261.543 185.393l-3.583 8.359-1.47-0.63 3.583-8.359z" fill="#d2dbc8" data-fill-palette-color="secondary"></path><path d="M261.608 177.938v0l-1.713-0.019 0.127-0.508c-0.947-0.589-1.616-1.303-2.006-2.141-0.396-0.84-0.427-1.798-0.09-2.875v0c0.084-0.267 0.181-0.498 0.291-0.693 0.106-0.203 0.214-0.377 0.324-0.522v0l2.007 0.487c-0.137 0.186-0.265 0.401-0.383 0.643-0.119 0.242-0.226 0.517-0.322 0.824v0c-0.287 0.92-0.282 1.799 0.015 2.636 0.297 0.837 0.88 1.56 1.75 2.168zM269.106 180.173l-0.633 2.025-12.214-3.814 0.618-1.977 3.577 1.235 0.196-0.11z" fill="#d2dbc8" data-fill-palette-color="secondary"></path></g></svg></g></svg></g></svg></g></svg></g><defs></defs></svg><rect width="279.72" height="279.72" fill="none" stroke="none" visibility="hidden"></rect></g></svg></g></svg>